<?xml version="1.0" encoding="UTF-8" standalone="no"?>
<!-- Created with Inkscape (http://www.inkscape.org/) -->

<svg
   width="73.797005mm"
   height="11.982422mm"
   viewBox="0 0 73.797005 11.982422"
   version="1.1"
   id="svg5"
   xml:space="preserve"
   inkscape:export-filename="dotted-trip-line2.svg"
   inkscape:export-xdpi="96"
   inkscape:export-ydpi="96"
   inkscape:version="1.2.1 (9c6d41e, 2022-07-14)"
   sodipodi:docname="vyÌkres.svg"
   xmlns:inkscape="http://www.inkscape.org/namespaces/inkscape"
   xmlns:sodipodi="http://sodipodi.sourceforge.net/DTD/sodipodi-0.dtd"
   xmlns="http://www.w3.org/2000/svg"
   xmlns:svg="http://www.w3.org/2000/svg"><sodipodi:namedview
     id="namedview7"
     pagecolor="#ffffff"
     bordercolor="#000000"
     borderopacity="0.25"
     inkscape:showpageshadow="2"
     inkscape:pageopacity="0.0"
     inkscape:pagecheckerboard="0"
     inkscape:deskcolor="#d1d1d1"
     inkscape:document-units="mm"
     showgrid="false"
     inkscape:zoom="1.7145304"
     inkscape:cx="476.51532"
     inkscape:cy="253.42216"
     inkscape:window-width="1691"
     inkscape:window-height="1177"
     inkscape:window-x="0"
     inkscape:window-y="25"
     inkscape:window-maximized="0"
     inkscape:current-layer="layer1" /><defs
     id="defs2" /><g
     inkscape:label="Vrstva 1"
     inkscape:groupmode="layer"
     id="layer1"
     transform="translate(-73.9237,-67.328123)"><g
       id="path721"
       inkscape:export-filename="dotted-line.svg"
       inkscape:export-xdpi="96"
       inkscape:export-ydpi="96"
       style="fill:#ffffff"><path
         style="color:#000000;fill:#ffffff;stroke-linecap:round;stroke-linejoin:bevel;stroke-dasharray:1.13223, 3.39669;stroke-dashoffset:3.84958;-inkscape-stroke:none;paint-order:stroke fill markers"
         d="m 110.35742,67.328125 c -0.38167,9.9e-5 -0.76172,0.0037 -1.14258,0.01172 a 0.56611502,0.56611502 0 0 0 -0.55468,0.578125 0.56611502,0.56611502 0 0 0 0.57812,0.554687 c 0.37379,-0.0078 0.746,-0.01358 1.11914,-0.01367 a 0.56611502,0.56611502 0 0 0 0.56641,-0.566406 0.56611502,0.56611502 0 0 0 -0.56641,-0.564453 z m 3.42188,0.06641 a 0.56611502,0.56611502 0 0 0 -0.5918,0.541016 0.56611502,0.56611502 0 0 0 0.54102,0.589844 l 0.44921,0.01953 0.58204,0.03125 0.0898,0.0059 a 0.56611502,0.56611502 0 0 0 0.59961,-0.53125 0.56611502,0.56611502 0 0 0 -0.53125,-0.599609 l -0.0937,-0.0059 h -0.004 l -0.58398,-0.03125 h -0.006 z m -7.98242,0.08594 c -0.37869,0.02392 -0.75913,0.05038 -1.14063,0.08203 a 0.56611502,0.56611502 0 0 0 -0.51758,0.611328 0.56611502,0.56611502 0 0 0 0.61133,0.517578 c 0.37074,-0.03076 0.74256,-0.05642 1.11719,-0.08008 a 0.56611502,0.56611502 0 0 0 0.52929,-0.601562 0.56611502,0.56611502 0 0 0 -0.5996,-0.529297 z m 12.52929,0.246093 a 0.56611502,0.56611502 0 0 0 -0.61914,0.50586 0.56611502,0.56611502 0 0 0 0.50586,0.621094 l 0.0273,0.002 0.58008,0.0625 0.50977,0.06055 a 0.56611502,0.56611502 0 0 0 0.62695,-0.498047 0.56611502,0.56611502 0 0 0 -0.49609,-0.626953 l -0.51172,-0.06055 h -0.006 l -0.58398,-0.0625 -0.004,-0.002 z m -17.07422,0.183594 -0.54101,0.06836 h -0.006 l -0.58008,0.08008 h -0.004 a 0.56611502,0.56611502 0 0 0 -0.480465,0.640625 0.56611502,0.56611502 0 0 0 0.640625,0.480468 l 0.57422,-0.07813 0.54101,-0.06836 a 0.56611502,0.56611502 0 0 0 0.48829,-0.634766 0.56611502,0.56611502 0 0 0 -0.63282,-0.488281 z m 21.59571,0.427735 a 0.56611502,0.56611502 0 0 0 -0.64844,0.466796 0.56611502,0.56611502 0 0 0 0.4668,0.650391 c 0.36777,0.05993 0.73538,0.125482 1.10351,0.193359 a 0.56611502,0.56611502 0 0 0 0.66016,-0.455078 0.56611502,0.56611502 0 0 0 -0.45508,-0.658203 c -0.37417,-0.06899 -0.74973,-0.135797 -1.12695,-0.197265 z m -26.099613,0.271484 c -0.376922,0.06855 -0.749734,0.14201 -1.121094,0.216797 a 0.56611502,0.56611502 0 0 0 -0.443359,0.666015 0.56611502,0.56611502 0 0 0 0.666015,0.44336 c 0.368588,-0.07423 0.735845,-0.146381 1.101563,-0.212891 a 0.56611502,0.56611502 0 0 0 0.455078,-0.658203 0.56611502,0.56611502 0 0 0 -0.658203,-0.455078 z m 30.578123,0.615234 a 0.56611502,0.56611502 0 0 0 -0.67773,0.423828 0.56611502,0.56611502 0 0 0 0.42187,0.679688 l 0.40235,0.09375 0.57421,0.136719 0.11719,0.0293 a 0.56611502,0.56611502 0 0 0 0.68555,-0.41211 0.56611502,0.56611502 0 0 0 -0.41211,-0.685547 l -0.12109,-0.0293 -0.004,-0.002 -0.57812,-0.138672 -0.004,-0.002 z m -35.037108,0.34961 c -0.370044,0.09063 -0.73887,0.185073 -1.107421,0.283203 a 0.56611502,0.56611502 0 0 0 -0.402344,0.693359 0.56611502,0.56611502 0 0 0 0.693359,0.400391 c 0.360855,-0.09608 0.722836,-0.18841 1.085938,-0.277344 a 0.56611502,0.56611502 0 0 0 0.414062,-0.683594 0.56611502,0.56611502 0 0 0 -0.683594,-0.416015 z m 39.449218,0.808593 a 0.56611502,0.56611502 0 0 0 -0.70312,0.384766 0.56611502,0.56611502 0 0 0 0.38476,0.703125 l 0.0527,0.01563 0.56836,0.169922 0.45312,0.140625 a 0.56611502,0.56611502 0 0 0 0.70898,-0.373047 0.56611502,0.56611502 0 0 0 -0.37304,-0.708984 l -0.45703,-0.140625 -0.004,-0.002 -0.57227,-0.171875 h -0.006 z m -43.845702,0.416016 c -0.360743,0.11237 -0.72375,0.227239 -1.087891,0.347656 a 0.56611502,0.56611502 0 0 0 -0.359375,0.714844 0.56611502,0.56611502 0 0 0 0.714844,0.359375 c 0.352512,-0.116571 0.710414,-0.227737 1.070313,-0.339844 a 0.56611502,0.56611502 0 0 0 0.371093,-0.708984 0.56611502,0.56611502 0 0 0 -0.708984,-0.373047 z m 48.179692,1.011719 a 0.56611502,0.56611502 0 0 0 -0.72461,0.339844 0.56611502,0.56611502 0 0 0 0.33984,0.724609 c 0.35226,0.127046 0.70304,0.257007 1.05078,0.390625 a 0.56611502,0.56611502 0 0 0 0.73242,-0.326172 0.56611502,0.56611502 0 0 0 -0.32617,-0.730469 c -0.35686,-0.137122 -0.71448,-0.2694 -1.07226,-0.398437 z m -52.492192,0.464844 c -0.359279,0.133127 -0.713962,0.272308 -1.066406,0.410156 a 0.56611502,0.56611502 0 0 0 -0.320313,0.732422 0.56611502,0.56611502 0 0 0 0.732422,0.322265 c 0.350503,-0.137088 0.700314,-0.273204 1.048828,-0.402343 a 0.56611502,0.56611502 0 0 0 0.333985,-0.726563 0.56611502,0.56611502 0 0 0 -0.728516,-0.335937 z m 56.730472,1.21875 a 0.56611502,0.56611502 0 0 0 -0.74219,0.296875 0.56611502,0.56611502 0 0 0 0.29687,0.74414 l 0.0488,0.01953 0.55469,0.244141 0.42383,0.189453 a 0.56611502,0.56611502 0 0 0 0.74804,-0.285156 0.56611502,0.56611502 0 0 0 -0.28515,-0.748047 l -0.42578,-0.191406 -0.004,-0.002 -0.56055,-0.244141 -0.004,-0.002 z m -60.953128,0.503906 c -0.348131,0.152829 -0.696314,0.308534 -1.042969,0.46875 a 0.56611502,0.56611502 0 0 0 -0.275391,0.751953 0.56611502,0.56611502 0 0 0 0.75,0.277344 c 0.338525,-0.156458 0.680422,-0.310354 1.023438,-0.460938 a 0.56611502,0.56611502 0 0 0 0.291016,-0.746094 0.56611502,0.56611502 0 0 0 -0.746094,-0.291015 z m 64.656248,1.398437 a 0.56611502,0.56611502 0 0 0 -0.33008,0.283203 0.56611502,0.56611502 0 0 0 0.25,0.759766 l 0.38868,0.199219 0.54687,0.28125 0.0625,0.0332 a 0.56611502,0.56611502 0 0 0 0.76563,-0.236328 0.56611502,0.56611502 0 0 0 -0.23633,-0.765625 l -0.0664,-0.0332 -0.004,-0.002 -0.54882,-0.285157 -0.004,-0.002 -0.39258,-0.199219 a 0.56611502,0.56611502 0 0 0 -0.43164,-0.0332 z m -68.775389,0.558594 -0.002,0.002 -0.0039,0.002 -0.535156,0.275391 -0.0039,0.002 -0.466797,0.244141 a 0.56611502,0.56611502 0 0 0 -0.238281,0.763672 0.56611502,0.56611502 0 0 0 0.763672,0.240234 l 0.464844,-0.244141 0.53125,-0.273437 0.002,-0.002 a 0.56611502,0.56611502 0 0 0 0.25,-0.759766 0.56611502,0.56611502 0 0 0 -0.761719,-0.25 z"
         id="path1876" /><g
         id="g1868"
         style="fill:#ffffff"><path
           style="color:#000000;fill:#ffffff;-inkscape-stroke:none"
           d="m 146.23633,72.666016 -1.08789,0.3125 1.17187,4.072265 -4.07226,1.171875 0.3125,1.087891 5.16015,-1.484375 z"
           id="path1870" /></g></g></g></svg>
